<mxfile host="app.diagrams.net" modified="2022-01-20T03:42:25.960Z" agent="5.0 (Windows NT 10.0; Win64; x64) AppleWebKit/537.36 (KHTML, like Gecko) Chrome/97.0.4692.71 Safari/537.36" etag="gkzoV3fKM-z3uS535OPP" version="16.4.0" type="github">
  <diagram id="uuWlhSWDfOBKs5XeoUxB" name="Page-1">
    <mxGraphModel dx="865" dy="479" grid="1" gridSize="10" guides="1" tooltips="1" connect="1" arrows="1" fold="1" page="1" pageScale="1" pageWidth="850" pageHeight="1100" math="0" shadow="0">
      <root>
        <mxCell id="0" />
        <mxCell id="1" parent="0" />
        <mxCell id="9rhsJFWtSMnNC_u9lSqj-5" value="&lt;div style=&quot;text-align: center&quot;&gt;&lt;span&gt;Waitress&amp;nbsp;&lt;/span&gt;&lt;/div&gt;&lt;div style=&quot;text-align: center&quot;&gt;&lt;span&gt;-----------------------------&lt;/span&gt;&lt;/div&gt;printMenu()&lt;br&gt;&lt;div style=&quot;text-align: justify&quot;&gt;&lt;/div&gt;" style="rounded=0;whiteSpace=wrap;html=1;align=left;" vertex="1" parent="1">
          <mxGeometry x="340" y="175" width="120" height="60" as="geometry" />
        </mxCell>
        <mxCell id="9rhsJFWtSMnNC_u9lSqj-6" value="&amp;lt;&amp;lt;interface&amp;gt;&amp;gt;&lt;br&gt;Menu&lt;br&gt;---------------------------------------&lt;br&gt;&lt;div style=&quot;text-align: left&quot;&gt;&lt;span&gt;createIterator()&lt;/span&gt;&lt;/div&gt;" style="rounded=0;whiteSpace=wrap;html=1;" vertex="1" parent="1">
          <mxGeometry x="70" y="175" width="160" height="90" as="geometry" />
        </mxCell>
        <mxCell id="9rhsJFWtSMnNC_u9lSqj-7" value="DinerMenu&lt;br&gt;-----------------------------&lt;br&gt;&lt;div style=&quot;text-align: left&quot;&gt;&lt;span&gt;menuItems&lt;/span&gt;&lt;/div&gt;-----------------------------&lt;br&gt;&lt;div style=&quot;text-align: left&quot;&gt;&lt;span&gt;createIterator()&lt;/span&gt;&lt;/div&gt;" style="rounded=0;whiteSpace=wrap;html=1;" vertex="1" parent="1">
          <mxGeometry x="200" y="365" width="120" height="90" as="geometry" />
        </mxCell>
        <mxCell id="9rhsJFWtSMnNC_u9lSqj-8" value="PancakeHouseMenu&lt;br&gt;-----------------------------&lt;br&gt;&lt;div style=&quot;text-align: left&quot;&gt;&lt;span&gt;menuItems&lt;/span&gt;&lt;/div&gt;-----------------------------&lt;br&gt;&lt;div style=&quot;text-align: left&quot;&gt;&lt;span&gt;createIterator()&lt;/span&gt;&lt;/div&gt;" style="rounded=0;whiteSpace=wrap;html=1;" vertex="1" parent="1">
          <mxGeometry x="10" y="370" width="120" height="80" as="geometry" />
        </mxCell>
        <mxCell id="9rhsJFWtSMnNC_u9lSqj-9" value="&amp;lt;&amp;lt;interface&amp;gt;&amp;gt;&lt;br&gt;Iterator&lt;br&gt;----------------------------------------------&lt;br&gt;&lt;div style=&quot;text-align: left&quot;&gt;&lt;span&gt;hasNext()&lt;/span&gt;&lt;/div&gt;&lt;div style=&quot;text-align: left&quot;&gt;&lt;span&gt;next()&lt;/span&gt;&lt;/div&gt;" style="rounded=0;whiteSpace=wrap;html=1;" vertex="1" parent="1">
          <mxGeometry x="560" y="170" width="190" height="100" as="geometry" />
        </mxCell>
        <mxCell id="9rhsJFWtSMnNC_u9lSqj-10" value="PancakeHouseMenuIterator&lt;br&gt;--------------------------------------------&lt;br&gt;&lt;div style=&quot;text-align: left&quot;&gt;&lt;span&gt;hasNext()&lt;/span&gt;&lt;/div&gt;&lt;div style=&quot;text-align: left&quot;&gt;&lt;span&gt;next()&lt;/span&gt;&lt;/div&gt;" style="rounded=0;whiteSpace=wrap;html=1;" vertex="1" parent="1">
          <mxGeometry x="425" y="370" width="180" height="90" as="geometry" />
        </mxCell>
        <mxCell id="9rhsJFWtSMnNC_u9lSqj-11" value="DinerMenuIterator&lt;br&gt;--------------------------------------------&lt;br&gt;&lt;div style=&quot;text-align: left&quot;&gt;&lt;span&gt;hasNext()&lt;/span&gt;&lt;/div&gt;&lt;div style=&quot;text-align: left&quot;&gt;&lt;span&gt;next()&lt;/span&gt;&lt;/div&gt;" style="rounded=0;whiteSpace=wrap;html=1;" vertex="1" parent="1">
          <mxGeometry x="650" y="370" width="180" height="90" as="geometry" />
        </mxCell>
        <mxCell id="9rhsJFWtSMnNC_u9lSqj-19" value="" style="endArrow=none;dashed=1;html=1;rounded=0;startArrow=classic;startFill=1;exitX=0.5;exitY=1;exitDx=0;exitDy=0;entryX=0.5;entryY=0;entryDx=0;entryDy=0;" edge="1" parent="1" source="9rhsJFWtSMnNC_u9lSqj-6" target="9rhsJFWtSMnNC_u9lSqj-8">
          <mxGeometry width="50" height="50" relative="1" as="geometry">
            <mxPoint x="160" y="380" as="sourcePoint" />
            <mxPoint x="160" y="410" as="targetPoint" />
          </mxGeometry>
        </mxCell>
        <mxCell id="9rhsJFWtSMnNC_u9lSqj-23" value="" style="endArrow=none;dashed=1;html=1;rounded=0;entryX=0.5;entryY=0;entryDx=0;entryDy=0;exitX=0.75;exitY=1;exitDx=0;exitDy=0;startArrow=classic;startFill=1;" edge="1" parent="1" source="9rhsJFWtSMnNC_u9lSqj-6" target="9rhsJFWtSMnNC_u9lSqj-7">
          <mxGeometry width="50" height="50" relative="1" as="geometry">
            <mxPoint x="230" y="370" as="sourcePoint" />
            <mxPoint x="280" y="320" as="targetPoint" />
          </mxGeometry>
        </mxCell>
        <mxCell id="9rhsJFWtSMnNC_u9lSqj-25" value="" style="endArrow=classic;dashed=1;html=1;rounded=0;entryX=0.211;entryY=1;entryDx=0;entryDy=0;entryPerimeter=0;exitX=0.559;exitY=-0.015;exitDx=0;exitDy=0;exitPerimeter=0;endFill=1;" edge="1" parent="1" source="9rhsJFWtSMnNC_u9lSqj-10" target="9rhsJFWtSMnNC_u9lSqj-9">
          <mxGeometry width="50" height="50" relative="1" as="geometry">
            <mxPoint x="530" y="380" as="sourcePoint" />
            <mxPoint x="580" y="330" as="targetPoint" />
          </mxGeometry>
        </mxCell>
        <mxCell id="9rhsJFWtSMnNC_u9lSqj-27" value="" style="endArrow=classic;dashed=1;html=1;rounded=0;entryX=0.75;entryY=1;entryDx=0;entryDy=0;exitX=0.5;exitY=0;exitDx=0;exitDy=0;endFill=1;" edge="1" parent="1" source="9rhsJFWtSMnNC_u9lSqj-11" target="9rhsJFWtSMnNC_u9lSqj-9">
          <mxGeometry width="50" height="50" relative="1" as="geometry">
            <mxPoint x="680" y="370" as="sourcePoint" />
            <mxPoint x="730" y="320" as="targetPoint" />
          </mxGeometry>
        </mxCell>
        <mxCell id="9rhsJFWtSMnNC_u9lSqj-30" value="" style="endArrow=none;html=1;rounded=0;entryX=0;entryY=0.75;entryDx=0;entryDy=0;endFill=0;startArrow=classic;startFill=1;" edge="1" parent="1" source="9rhsJFWtSMnNC_u9lSqj-6" target="9rhsJFWtSMnNC_u9lSqj-5">
          <mxGeometry width="50" height="50" relative="1" as="geometry">
            <mxPoint x="390" y="270" as="sourcePoint" />
            <mxPoint x="440" y="220" as="targetPoint" />
          </mxGeometry>
        </mxCell>
        <mxCell id="9rhsJFWtSMnNC_u9lSqj-31" value="" style="endArrow=classic;html=1;rounded=0;entryX=0;entryY=0.5;entryDx=0;entryDy=0;exitX=1;exitY=0.75;exitDx=0;exitDy=0;" edge="1" parent="1" source="9rhsJFWtSMnNC_u9lSqj-5" target="9rhsJFWtSMnNC_u9lSqj-9">
          <mxGeometry width="50" height="50" relative="1" as="geometry">
            <mxPoint x="460" y="230" as="sourcePoint" />
            <mxPoint x="510" y="180" as="targetPoint" />
            <Array as="points" />
          </mxGeometry>
        </mxCell>
      </root>
    </mxGraphModel>
  </diagram>
</mxfile>
